# xmcd
# 
# Track frame offsets:
#     150
#     16925
#     34197
#     50130
#     62002
#     75107
#     94725
#     108355
#     122727
#     132595
#     143192
#     159585
#     171082
#     187975
#     201135
#     211932
# 
# Disc length: 3137
# 
# Revision: 22
# Processed by: cddbd v1.5.2PL0 Copyright (c) Steve Scherf et al.
# Submitted via: fre:ac v1.0.31
# 
DISCID=d80c3f10
DTITLE=Johnny Cash - Unearthed - Disc 2 - Trouble In Mind
DYEAR=2003
DGENRE=Country
TTITLE0=Pocahontas
TTITLE1=I'm A Drifter (Version 1)
TTITLE2=Trouble In Mind
TTITLE3=Down The Line
TTITLE4=I'm Movin' On
TTITLE5=As Long As The Grass Shall Grow
TTITLE6=Heart Of Gold
TTITLE7=The Running Kind (With Tom Petty)
TTITLE8=Everybody's Trying To Be My Baby
TTITLE9=Brown-Eyed Handsome Man (With Carl Perkins)
TTITLE10='T' For Texas
TTITLE11=Devil's Right Hand
TTITLE12=I'm A Drifter (Version 2)
TTITLE13=Like A Soldier (With Willie Nelson)
TTITLE14=Drive On (Alternate Lyrics)
TTITLE15=Bird On A Wire (Live With Orchestra)
EXTD=Limited Edition Deluxe Packaging With 5 Discs.\n06024 9861335 1 YEAR: 2003
EXTT0=
EXTT1=
EXTT2=
EXTT3=
EXTT4=
EXTT5=
EXTT6=
EXTT7=
EXTT8=
EXTT9=
EXTT10=
EXTT11=
EXTT12=
EXTT13=
EXTT14=
EXTT15=
PLAYORDER=
